<?xml version="1.0" encoding="UTF-8"?>
<svg width="512px" height="512px" viewBox="0 0 512 512" version="1.1" xmlns="http://www.w3.org/2000/svg" xmlns:xlink="http://www.w3.org/1999/xlink">
    <!-- Generator: Sketch 52.6 (67491) - http://www.bohemiancoding.com/sketch -->
    <title>Favicon</title>
    <desc>Created with Sketch.</desc>
    <g id="Favicon" stroke="none" stroke-width="1" fill="none" fill-rule="evenodd">
        <g id="Group" transform="translate(9.000000, 42.000000)">
            <text id="TOGETHER" font-family="Avenir-Book, Avenir" font-size="55" font-weight="normal" letter-spacing="0.5360284" fill="#892225">
                <tspan x="0.534505495" y="407.981649">TOGETHER</tspan>
            </text>
            <text id="NORTH" font-family="Avenir-Heavy, Avenir" font-size="55" font-weight="600" letter-spacing="-1.168972" fill="#D5232A">
                <tspan x="300.058429" y="407.981649">NORTH</tspan>
            </text>
            <path d="M245.925016,123.345688 C233.337756,123.345688 223.14183,113.158182 223.14183,100.599586 C223.14183,88.0409899 233.337756,77.853483 245.925016,77.853483 C258.501356,77.853483 268.708202,88.0409899 268.708202,100.599586 C268.708202,113.158182 258.501356,123.345688 245.925016,123.345688 Z M302.530832,98.7708492 C302.427098,98.8280824 302.320634,98.8934918 302.216901,98.950725 C302.143195,98.9970566 302.055841,99.0461136 301.979405,99.0951706 C300.871093,99.776518 299.77097,100.476943 298.64082,101.199171 C298.610791,101.226425 298.572574,101.245503 298.542546,101.261855 C298.517977,101.283659 298.487949,101.302736 298.457921,101.319089 C298.411514,101.359969 298.373296,101.387223 298.324159,101.414477 C293.579709,104.524147 288.739716,108.097133 284.038943,112.163414 C284.836055,111.337621 295.001952,100.885752 303.281536,92.9521422 L308.872233,49.3731604 C309.300817,46.0563611 305.929474,43.5462771 302.872061,44.9116974 L283.383783,53.5539082 C281.369167,54.4451107 278.996942,53.6683746 277.907739,51.7524256 L249.653968,2.16668484 C248.002419,-0.722228279 243.836694,-0.722228279 242.185145,2.16668484 L213.934104,51.7524256 C212.842171,53.6683746 210.467216,54.4451107 208.455329,53.5539082 L188.967052,44.9116974 C185.909639,43.5462771 182.541025,46.0563611 182.966879,49.3731604 L188.557577,92.9521422 C196.83716,100.885752 207.003058,111.337621 207.800169,112.163414 C201.707182,106.884334 195.363051,102.439224 189.308281,98.7599477 C188.445654,98.2421236 187.580297,97.7297504 186.736778,97.2364548 C184.020595,95.6530034 181.372657,94.2303499 178.855751,92.9630437 C174.081273,90.5347215 169.754488,88.6487518 166.222084,87.2369999 C165.444082,86.9235801 164.693378,86.6401395 164,86.3757767 C170.494273,90.8862967 175.76285,94.7154693 179.966793,97.8605691 C179.996821,97.8796468 180.0132,97.8987245 180.043228,97.9069007 C184.683944,101.376322 188.008881,104.011774 190.200936,105.813256 L190.209126,105.813256 C192.193714,107.434863 193.255619,108.361496 193.523143,108.598605 C193.542252,108.609506 193.550441,108.628584 193.561361,108.63676 L193.56955,108.644936 L193.58047,108.644936 L193.58047,108.655838 L193.591389,108.655838 C199.523316,115.204949 205.01847,121.53603 210.022253,127.515535 C210.800256,128.436716 211.559149,129.346997 212.309853,130.254551 C213.106965,131.222065 213.895886,132.178677 214.673889,133.127112 C215.099743,133.639485 215.517407,134.149133 215.915963,134.65333 C216.030616,134.775973 216.12616,134.909517 216.229893,135.03216 C217.057033,136.056906 217.873253,137.05985 218.670364,138.054617 C219.743188,139.392783 220.785985,140.70097 221.793293,141.979178 C222.16455,142.442494 222.533078,142.916712 222.893416,143.371852 C223.379326,143.998692 223.862506,144.61463 224.348417,145.230568 L225.030875,146.110869 C225.724252,147.012973 226.406711,147.893274 227.06187,148.754497 C227.195632,148.926196 227.318475,149.086994 227.449507,149.258694 C228.115586,150.130819 228.759827,150.983866 229.395878,151.817835 C230.433214,153.18053 231.410494,154.488717 232.349557,155.750572 C232.709895,156.232966 233.062043,156.707184 233.403272,157.181402 C233.752691,157.644718 234.08846,158.11076 234.41877,158.554998 C235.139446,159.541589 235.832824,160.4873 236.479794,161.389404 C236.725479,161.721901 236.952055,162.043497 237.181361,162.354192 C237.779195,163.179985 238.33881,163.975799 238.879317,164.725281 C239.193248,165.169519 239.496259,165.605582 239.791081,166.022566 C239.963061,166.251499 240.115932,166.477706 240.266072,166.695737 C240.580003,167.1318 240.874825,167.548784 241.147808,167.957593 C242.280689,169.576474 243.219752,170.941895 243.948617,172.032051 C244.197032,172.391802 244.404499,172.705222 244.595587,172.999564 C244.633805,173.056797 244.680212,173.122206 244.71843,173.17944 C244.852192,173.386569 244.985953,173.577347 245.108796,173.749046 C245.297154,174.043388 245.460944,174.288673 245.581057,174.476725 C245.657492,174.591192 245.714819,174.675679 245.763956,174.75199 C245.791254,174.790145 245.810363,174.8283 245.829472,174.855554 C245.848581,174.885534 245.867689,174.912788 245.875879,174.931865 C245.894988,174.950943 245.905907,174.970021 245.916826,175 L245.925016,175 C246.427305,174.204186 263.098395,148.49831 291.870834,115.812711 C293.931858,113.4607 296.055668,111.073258 298.250454,108.655838 L298.258643,108.655838 L298.258643,108.644936 C298.277752,108.628584 298.30505,108.609506 298.343268,108.571351 C298.657199,108.296086 299.710914,107.37763 301.638176,105.813256 L301.638176,105.802355 C303.832962,104.011774 307.155169,101.387223 311.787695,97.9178022 C311.814993,97.8987245 311.842292,97.8796468 311.87232,97.8605691 C314.730455,95.7184127 318.099069,93.265562 322,90.4774883 C313.523869,92.894909 306.64196,96.391584 302.530832,98.7708492 Z" id="Fill-6" fill="#892225"></path>
            <path d="M216.57093,164.099775 C214.153045,160.516209 211.697125,157.074027 209.230338,153.794983 C209.061901,153.558435 208.890748,153.330044 208.719594,153.104371 C208.551157,152.87598 208.380003,152.650308 208.211566,152.432793 C207.871976,151.978729 207.529668,151.535542 207.181928,151.089635 C206.50003,150.200541 205.820848,149.322322 205.13895,148.460418 C204.288615,147.383716 203.43828,146.315172 202.598812,145.273817 C202.20217,144.784407 201.794661,144.281403 201.39802,143.80015 C199.963589,142.05187 198.545458,140.368845 197.157212,138.751074 C197.157212,138.751074 197.149061,138.742917 197.138194,138.723885 C197.09201,138.674944 196.986058,138.552591 196.817621,138.354108 C196.703518,138.231756 196.562249,138.068619 196.401962,137.891888 C196.211791,137.65534 196.00532,137.418792 195.796132,137.182244 C195.361456,136.67924 194.937647,136.178954 194.492104,135.697702 C194.095462,135.243638 193.709687,134.797732 193.313045,134.354544 C191.837864,132.709584 190.411583,131.148911 189.042353,129.675244 C188.702763,129.305468 188.363172,128.946568 188.031731,128.595824 C187.3607,127.88618 186.708686,127.195569 186.075689,126.534866 C185.888235,126.450578 185.708931,126.34454 185.537778,126.222187 C185.309573,126.072645 185.103102,125.901352 184.893914,125.694712 L173.766207,114.547048 C173.690139,114.479075 173.652105,114.443728 173.652105,114.443728 L173.652105,114.432853 L169.503665,110.281027 C163.024276,104.201472 156.229746,98.3122428 150.117114,94 C148.872854,94.3507436 147.775297,95.2670272 147.27542,96.64825 L141.711566,111.955896 C140.983484,113.959757 138.886172,115.123464 136.807877,114.688433 L96.192835,106.093856 C93.0740345,105.430434 90.3627427,108.285324 91.1668933,111.360448 L103.723597,159.211116 C104.215325,161.073592 103.392157,163.042106 101.729521,164.007331 L89.1347829,171.266907 C86.5566106,172.75145 86.2550541,176.362205 88.5506869,178.262746 L162.948207,239.912047 C164.374488,241.083912 164.877082,243.04155 164.206051,244.762641 L156.164544,265.364068 C154.974619,268.41744 157.517474,271.614917 160.758527,271.149977 L223.015002,262.27263 L224.780874,256.41059 L224.384232,262.074148 L224.4603,262.063272 C224.4603,262.063272 224.384232,263.30311 224.177761,265.070422 C223.835453,268.009599 223.148122,272.417005 221.871261,275 C224.346198,270.459366 226.416342,265.967673 228.136029,261.543954 C229.798665,257.242587 231.12171,253.006474 232.132332,248.835617 C241.342031,211.281583 226.256055,179.548806 216.638848,164.203094 C216.619831,164.167748 216.600814,164.126964 216.57093,164.099775" id="Fill-7" fill="#D5232A"></path>
            <path d="M402.862716,171.291289 L390.273178,164.029422 C388.607795,163.063893 387.784612,161.094757 388.276348,159.231694 L400.833285,111.365926 C401.634734,108.289832 398.923392,105.434041 395.80725,106.097672 L355.191456,114.694962 C353.113123,115.13013 351.015772,113.966055 350.290393,111.961562 L346.05494,100.318096 L344.72372,96.6490856 C344.223834,95.267427 343.126256,94.3508543 341.879256,94 C335.788246,98.2945649 329.023475,104.166614 322.560266,110.22089 C322.541248,110.248088 322.511364,110.267126 322.492346,110.286165 L318.346547,114.4393 L318.346547,114.45018 C318.346547,114.45018 318.308512,114.485537 318.232442,114.553532 L307.10453,125.704714 C306.895338,125.911419 306.688863,126.090925 306.460654,126.232355 L306.452504,126.243234 C306.281347,126.365625 306.10204,126.468978 305.922733,126.545132 L305.914582,126.556011 C302.776706,129.817052 299.215014,133.687328 295.444129,138.074366 C295.237654,138.310989 295.074648,138.490496 294.97141,138.604727 C294.917075,138.670003 294.87904,138.70808 294.860023,138.737998 C294.849156,138.757036 294.841005,138.765196 294.841005,138.765196 C290.825611,143.426934 286.592875,148.65711 282.351988,154.352372 C282.351988,154.352372 282.341121,154.360531 282.332971,154.371411 C282.322104,154.390449 282.303086,154.409488 282.275918,154.436686 C281.8032,155.013283 278.999487,158.418474 275.426927,164.121895 C275.312823,164.293243 275.209585,164.46187 275.095481,164.644097 C265.478096,180.13336 250.739588,211.647688 259.867954,248.884476 C260.878595,253.05665 262.198947,257.294099 263.861614,261.596823 C265.573183,266.00562 267.632499,270.479692 270.107481,275 C268.075333,270.846865 267.537411,262.116305 267.537411,262.116305 L267.613481,262.127184 L267.227699,256.46184 L268.982736,262.32573 L268.993603,262.32573 L331.24308,271.205878 C334.481477,271.670964 337.024379,268.472479 335.831714,265.418143 L327.792775,244.810215 C327.121732,243.088581 327.624335,241.130325 329.050642,239.958091 L403.44954,178.289336 C405.745215,176.388195 405.443653,172.7763 402.862716,171.291289" id="Fill-8" fill="#D5232A"></path>
            <path d="M254.988864,269.215767 L254.906474,268.960136 L253.048703,263.322658 L251.438104,258.462951 L251.33711,258.142053 L251.331794,258.142053 C249.734484,253.233395 248.065415,248.033754 246.505313,243 C244.937238,248.033754 243.268169,253.233395 241.668201,258.142053 L241.662885,258.142053 L241.559233,258.462951 L239.951292,263.322658 L238.093521,268.960136 L238.011131,269.215767 L240.219725,266.341278 L237.003842,323.545495 C236.902848,325.976708 238.8058,328 241.181832,328 L251.818163,328 C254.196853,328 256.097147,325.976708 255.996153,323.545495 L252.78027,266.330401 L254.988864,269.215767" id="Fill-9" fill="#D5232A"></path>
            <path d="M214,160 C196.832749,138.298246 163.464841,110.89748 146.232243,100.160367 C145.6659,99.8028243 145.115895,99.4723682 144.584949,99.1527468 C139.879951,96.3465789 136.634374,95.0166287 135.648721,95.715462 C132.373193,98.0232371 137.067299,107.02681 139.860892,111.74529 L139.860892,111.756124 C139.408907,112.330359 138.706425,112.687902 137.957655,112.687902 C137.788841,112.687902 137.628196,112.668941 137.467551,112.63102 L135.430897,112.197635 C131.34942,106.300891 121.966653,90.712574 133.680137,87.2373681 C137.086359,86.229748 142.409432,88.5077278 148.562959,92.5977987 C149.170143,93.0013885 149.793664,93.4239389 150.417186,93.8681585 C156.543484,98.1640872 163.353206,104.031037 169.847083,110.087592 C171.222097,111.368786 172.586219,112.668941 173.928559,113.958262 C174.941441,114.938795 175.937985,115.908494 176.920916,116.889028 C176.978095,116.926949 177.043442,116.991957 177.100621,117.056964 C180.272682,120.174628 183.256871,123.208323 185.917046,125.968443 C191.749282,132.016873 196.010464,136.716391 197.222109,138.054467 C197.390923,138.252199 197.497112,138.374089 197.5434,138.422845 C197.554291,138.441805 197.562459,138.449931 197.562459,138.449931 L214,160" id="Fill-10" fill="#892225"></path>
            <path d="M356.569103,112.197635 L354.535172,112.63102 C354.371804,112.668941 354.213881,112.687902 354.042345,112.687902 C353.293575,112.687902 352.593816,112.330359 352.139108,111.756124 L352.139108,111.74529 C354.929978,107.02681 359.62953,98.0232371 356.354002,95.715462 C355.368348,95.0166287 352.120049,96.3465789 347.415051,99.1527468 C346.884105,99.4723682 346.3341,99.8028243 345.765035,100.160367 C328.532436,110.89748 295.167251,138.298246 278,160 L294.437541,138.449931 C294.437541,138.449931 294.445709,138.441805 294.4566,138.422845 C294.47566,138.393049 294.513779,138.355128 294.568235,138.29012 C294.671701,138.176357 294.835069,137.997586 295.042002,137.761932 C296.528651,136.131321 300.610127,131.648495 306.074786,125.979278 L306.082954,125.968443 C308.688673,123.265204 311.61296,120.288391 314.719674,117.219484 C314.765962,117.181563 314.814972,117.132807 314.86126,117.08676 C315.912261,116.049344 316.982321,115.006512 318.071441,113.958262 C319.405612,112.668941 320.767012,111.368786 322.150194,110.087592 C322.169254,110.068631 322.199205,110.049671 322.218264,110.022584 C328.695804,103.993115 335.475575,98.1451266 341.580092,93.8681585 C342.206336,93.4239389 342.829857,93.0013885 343.437041,92.5977987 C349.590568,88.5077278 354.913641,86.229748 358.319863,87.2373681 C370.033347,90.712574 360.65058,106.300891 356.569103,112.197635" id="Fill-11" fill="#892225"></path>
        </g>
    </g>
</svg>